<?xml version="1.0" encoding="utf-8"?>
<!-- Generator: Adobe Illustrator 19.2.0, SVG Export Plug-In . SVG Version: 6.00 Build 0)  -->
<svg version="1.1" id="Layer_1" xmlns="http://www.w3.org/2000/svg" xmlns:xlink="http://www.w3.org/1999/xlink" x="0px" y="0px"
	 viewBox="0 0 612 792" style="enable-background:new 0 0 612 792;" xml:space="preserve">
<style type="text/css">
	.st0{fill:none;stroke:#010101;stroke-width:1.000000e-02;stroke-miterlimit:10;}
</style>
<g>
	<line class="st0" x1="403.6" y1="576.3" x2="403.6" y2="552"/>
	<line class="st0" x1="394.6" y1="552" x2="403.6" y2="552"/>
	<line class="st0" x1="394.6" y1="552" x2="394.6" y2="528.6"/>
	<line class="st0" x1="394.6" y1="528.6" x2="403.6" y2="528.6"/>
	<line class="st0" x1="403.6" y1="528.6" x2="403.6" y2="503.9"/>
	<line class="st0" x1="394.6" y1="503.9" x2="403.6" y2="503.9"/>
	<line class="st0" x1="394.6" y1="503.9" x2="394.6" y2="480.5"/>
	<line class="st0" x1="394.6" y1="480.5" x2="403.6" y2="480.5"/>
	<line class="st0" x1="403.6" y1="480.5" x2="403.6" y2="455.8"/>
	<line class="st0" x1="394.6" y1="455.8" x2="403.6" y2="455.8"/>
	<line class="st0" x1="394.6" y1="455.8" x2="394.6" y2="432.4"/>
	<line class="st0" x1="394.6" y1="432.4" x2="403.6" y2="432.4"/>
	<line class="st0" x1="403.6" y1="432.4" x2="403.6" y2="407.7"/>
	<line class="st0" x1="394.6" y1="407.7" x2="403.6" y2="407.7"/>
	<line class="st0" x1="394.6" y1="407.7" x2="394.6" y2="384.3"/>
	<line class="st0" x1="394.6" y1="384.3" x2="403.6" y2="384.3"/>
	<line class="st0" x1="403.6" y1="384.3" x2="403.6" y2="359.6"/>
	<line class="st0" x1="394.6" y1="359.6" x2="403.6" y2="359.6"/>
	<line class="st0" x1="394.6" y1="359.6" x2="394.6" y2="336.2"/>
	<line class="st0" x1="394.6" y1="336.2" x2="403.6" y2="336.2"/>
	<line class="st0" x1="403.6" y1="336.2" x2="403.6" y2="311.5"/>
	<line class="st0" x1="394.6" y1="311.5" x2="403.6" y2="311.5"/>
	<line class="st0" x1="394.6" y1="311.5" x2="394.6" y2="288.1"/>
	<line class="st0" x1="394.6" y1="288.1" x2="403.6" y2="288.1"/>
	<line class="st0" x1="403.6" y1="288.1" x2="403.6" y2="263.4"/>
	<line class="st0" x1="394.6" y1="263.4" x2="403.6" y2="263.4"/>
	<line class="st0" x1="394.6" y1="263.4" x2="394.6" y2="240"/>
	<line class="st0" x1="394.6" y1="240" x2="403.6" y2="240"/>
	<line class="st0" x1="403.6" y1="240" x2="403.6" y2="224.7"/>
	<line class="st0" x1="294.9" y1="576.3" x2="294.9" y2="552"/>
	<line class="st0" x1="294.9" y1="552" x2="303.9" y2="552"/>
	<line class="st0" x1="303.9" y1="552" x2="303.9" y2="528.6"/>
	<line class="st0" x1="294.9" y1="528.6" x2="303.9" y2="528.6"/>
	<line class="st0" x1="294.9" y1="528.6" x2="294.9" y2="503.9"/>
	<line class="st0" x1="294.9" y1="503.9" x2="303.9" y2="503.9"/>
	<line class="st0" x1="303.9" y1="503.9" x2="303.9" y2="480.5"/>
	<line class="st0" x1="294.9" y1="480.5" x2="303.9" y2="480.5"/>
	<line class="st0" x1="294.9" y1="480.5" x2="294.9" y2="455.8"/>
	<line class="st0" x1="294.9" y1="455.8" x2="303.9" y2="455.8"/>
	<line class="st0" x1="303.9" y1="455.8" x2="303.9" y2="432.4"/>
	<line class="st0" x1="294.9" y1="432.4" x2="303.9" y2="432.4"/>
	<line class="st0" x1="294.9" y1="432.4" x2="294.9" y2="407.7"/>
	<line class="st0" x1="294.9" y1="407.7" x2="303.9" y2="407.7"/>
	<line class="st0" x1="303.9" y1="407.7" x2="303.9" y2="384.3"/>
	<line class="st0" x1="294.9" y1="384.3" x2="303.9" y2="384.3"/>
	<line class="st0" x1="294.9" y1="384.3" x2="294.9" y2="359.6"/>
	<line class="st0" x1="294.9" y1="359.6" x2="303.9" y2="359.6"/>
	<line class="st0" x1="303.9" y1="359.6" x2="303.9" y2="336.2"/>
	<line class="st0" x1="294.9" y1="336.2" x2="303.9" y2="336.2"/>
	<line class="st0" x1="294.9" y1="336.2" x2="294.9" y2="311.5"/>
	<line class="st0" x1="294.9" y1="311.5" x2="303.9" y2="311.5"/>
	<line class="st0" x1="303.9" y1="311.5" x2="303.9" y2="288.1"/>
	<line class="st0" x1="294.9" y1="288.1" x2="303.9" y2="288.1"/>
	<line class="st0" x1="294.9" y1="288.1" x2="294.9" y2="263.4"/>
	<line class="st0" x1="294.9" y1="263.4" x2="303.9" y2="263.4"/>
	<line class="st0" x1="303.9" y1="263.4" x2="303.9" y2="240"/>
	<line class="st0" x1="294.9" y1="240" x2="303.9" y2="240"/>
	<line class="st0" x1="294.9" y1="240" x2="294.9" y2="224.7"/>
	<line class="st0" x1="403.6" y1="576.3" x2="381.5" y2="576.3"/>
	<line class="st0" x1="381.5" y1="567.3" x2="381.5" y2="576.3"/>
	<line class="st0" x1="381.5" y1="567.3" x2="360.5" y2="567.3"/>
	<line class="st0" x1="360.5" y1="567.3" x2="360.5" y2="576.3"/>
	<line class="st0" x1="360.5" y1="576.3" x2="338.1" y2="576.3"/>
	<line class="st0" x1="338.1" y1="567.3" x2="338.1" y2="576.3"/>
	<line class="st0" x1="338.1" y1="567.3" x2="317" y2="567.3"/>
	<line class="st0" x1="317" y1="567.3" x2="317" y2="576.3"/>
	<line class="st0" x1="317" y1="576.3" x2="294.9" y2="576.3"/>
	<line class="st0" x1="403.6" y1="224.7" x2="382.2" y2="224.7"/>
	<line class="st0" x1="382.2" y1="215.7" x2="382.2" y2="224.7"/>
	<line class="st0" x1="382.2" y1="215.7" x2="359.8" y2="215.7"/>
	<line class="st0" x1="359.8" y1="215.7" x2="359.8" y2="224.7"/>
	<line class="st0" x1="359.8" y1="224.7" x2="338.7" y2="224.7"/>
	<line class="st0" x1="338.7" y1="215.7" x2="338.7" y2="224.7"/>
	<line class="st0" x1="338.7" y1="215.7" x2="316.4" y2="215.7"/>
	<line class="st0" x1="316.4" y1="215.7" x2="316.4" y2="224.7"/>
	<line class="st0" x1="316.4" y1="224.7" x2="294.9" y2="224.7"/>
</g>
<g>
	<line class="st0" x1="549.2" y1="224.7" x2="529.6" y2="224.7"/>
	<line class="st0" x1="529.6" y1="224.7" x2="529.6" y2="215.7"/>
	<line class="st0" x1="529.6" y1="215.7" x2="500.1" y2="215.7"/>
	<line class="st0" x1="500.1" y1="224.7" x2="500.1" y2="215.7"/>
	<line class="st0" x1="500.1" y1="224.7" x2="471.8" y2="224.7"/>
	<line class="st0" x1="471.8" y1="224.7" x2="471.8" y2="215.7"/>
	<line class="st0" x1="471.8" y1="215.7" x2="442.2" y2="215.7"/>
	<line class="st0" x1="442.2" y1="224.7" x2="442.2" y2="215.7"/>
	<line class="st0" x1="442.2" y1="224.7" x2="422.6" y2="224.7"/>
	<line class="st0" x1="549.2" y1="567.3" x2="529.6" y2="567.3"/>
	<line class="st0" x1="529.6" y1="576.3" x2="529.6" y2="567.3"/>
	<line class="st0" x1="529.6" y1="576.3" x2="500.1" y2="576.3"/>
	<line class="st0" x1="500.1" y1="576.3" x2="500.1" y2="567.3"/>
	<line class="st0" x1="500.1" y1="567.3" x2="471.8" y2="567.3"/>
	<line class="st0" x1="471.8" y1="576.3" x2="471.8" y2="567.3"/>
	<line class="st0" x1="471.8" y1="576.3" x2="442.2" y2="576.3"/>
	<line class="st0" x1="442.2" y1="576.3" x2="442.2" y2="567.3"/>
	<line class="st0" x1="442.2" y1="567.3" x2="422.6" y2="567.3"/>
	<line class="st0" x1="549.2" y1="224.7" x2="549.2" y2="239.4"/>
	<line class="st0" x1="549.2" y1="239.4" x2="558.2" y2="239.4"/>
	<line class="st0" x1="558.2" y1="239.4" x2="558.2" y2="264.1"/>
	<line class="st0" x1="549.2" y1="264.1" x2="558.2" y2="264.1"/>
	<line class="st0" x1="549.2" y1="264.1" x2="549.2" y2="287.5"/>
	<line class="st0" x1="549.2" y1="287.5" x2="558.2" y2="287.5"/>
	<line class="st0" x1="558.2" y1="287.5" x2="558.2" y2="312.2"/>
	<line class="st0" x1="549.2" y1="312.2" x2="558.2" y2="312.2"/>
	<line class="st0" x1="549.2" y1="312.2" x2="549.2" y2="335.6"/>
	<line class="st0" x1="549.2" y1="335.6" x2="558.2" y2="335.6"/>
	<line class="st0" x1="558.2" y1="335.6" x2="558.2" y2="360.3"/>
	<line class="st0" x1="549.2" y1="360.3" x2="558.2" y2="360.3"/>
	<line class="st0" x1="549.2" y1="360.3" x2="549.2" y2="383.7"/>
	<line class="st0" x1="549.2" y1="383.7" x2="558.2" y2="383.7"/>
	<line class="st0" x1="558.2" y1="383.7" x2="558.2" y2="408.3"/>
	<line class="st0" x1="549.2" y1="408.3" x2="558.2" y2="408.3"/>
	<line class="st0" x1="549.2" y1="408.3" x2="549.2" y2="431.7"/>
	<line class="st0" x1="549.2" y1="431.7" x2="558.2" y2="431.7"/>
	<line class="st0" x1="558.2" y1="431.7" x2="558.2" y2="456.4"/>
	<line class="st0" x1="549.2" y1="456.4" x2="558.2" y2="456.4"/>
	<line class="st0" x1="549.2" y1="456.4" x2="549.2" y2="479.8"/>
	<line class="st0" x1="549.2" y1="479.8" x2="558.2" y2="479.8"/>
	<line class="st0" x1="558.2" y1="479.8" x2="558.2" y2="504.5"/>
	<line class="st0" x1="549.2" y1="504.5" x2="558.2" y2="504.5"/>
	<line class="st0" x1="549.2" y1="504.5" x2="549.2" y2="527.9"/>
	<line class="st0" x1="549.2" y1="527.9" x2="558.2" y2="527.9"/>
	<line class="st0" x1="558.2" y1="527.9" x2="558.2" y2="552.6"/>
	<line class="st0" x1="549.2" y1="552.6" x2="558.2" y2="552.6"/>
	<line class="st0" x1="549.2" y1="552.6" x2="549.2" y2="567.3"/>
	<line class="st0" x1="422.6" y1="224.7" x2="422.6" y2="239.4"/>
	<line class="st0" x1="413.6" y1="239.4" x2="422.6" y2="239.4"/>
	<line class="st0" x1="413.6" y1="239.4" x2="413.6" y2="264.1"/>
	<line class="st0" x1="413.6" y1="264.1" x2="422.6" y2="264.1"/>
	<line class="st0" x1="422.6" y1="264.1" x2="422.6" y2="287.5"/>
	<line class="st0" x1="413.6" y1="287.5" x2="422.6" y2="287.5"/>
	<line class="st0" x1="413.6" y1="287.5" x2="413.6" y2="312.2"/>
	<line class="st0" x1="413.6" y1="312.2" x2="422.6" y2="312.2"/>
	<line class="st0" x1="422.6" y1="312.2" x2="422.6" y2="335.6"/>
	<line class="st0" x1="413.6" y1="335.6" x2="422.6" y2="335.6"/>
	<line class="st0" x1="413.6" y1="335.6" x2="413.6" y2="360.3"/>
	<line class="st0" x1="413.6" y1="360.3" x2="422.6" y2="360.3"/>
	<line class="st0" x1="422.6" y1="360.3" x2="422.6" y2="383.7"/>
	<line class="st0" x1="413.6" y1="383.7" x2="422.6" y2="383.7"/>
	<line class="st0" x1="413.6" y1="383.7" x2="413.6" y2="408.3"/>
	<line class="st0" x1="413.6" y1="408.3" x2="422.6" y2="408.3"/>
	<line class="st0" x1="422.6" y1="408.3" x2="422.6" y2="431.7"/>
	<line class="st0" x1="413.6" y1="431.7" x2="422.6" y2="431.7"/>
	<line class="st0" x1="413.6" y1="431.7" x2="413.6" y2="456.4"/>
	<line class="st0" x1="413.6" y1="456.4" x2="422.6" y2="456.4"/>
	<line class="st0" x1="422.6" y1="456.4" x2="422.6" y2="479.8"/>
	<line class="st0" x1="413.6" y1="479.8" x2="422.6" y2="479.8"/>
	<line class="st0" x1="413.6" y1="479.8" x2="413.6" y2="504.5"/>
	<line class="st0" x1="413.6" y1="504.5" x2="422.6" y2="504.5"/>
	<line class="st0" x1="422.6" y1="504.5" x2="422.6" y2="527.9"/>
	<line class="st0" x1="413.6" y1="527.9" x2="422.6" y2="527.9"/>
	<line class="st0" x1="413.6" y1="527.9" x2="413.6" y2="552.6"/>
	<line class="st0" x1="413.6" y1="552.6" x2="422.6" y2="552.6"/>
	<line class="st0" x1="422.6" y1="552.6" x2="422.6" y2="567.3"/>
</g>
<g>
	<g>
		<line class="st0" x1="19.6" y1="215.7" x2="19.6" y2="240"/>
		<line class="st0" x1="28.6" y1="240" x2="19.6" y2="240"/>
		<line class="st0" x1="28.6" y1="240" x2="28.6" y2="263.4"/>
		<line class="st0" x1="28.6" y1="263.4" x2="19.6" y2="263.4"/>
		<line class="st0" x1="19.6" y1="263.4" x2="19.6" y2="288.1"/>
		<line class="st0" x1="28.6" y1="288.1" x2="19.6" y2="288.1"/>
		<line class="st0" x1="28.6" y1="288.1" x2="28.6" y2="311.5"/>
		<line class="st0" x1="28.6" y1="311.5" x2="19.6" y2="311.5"/>
		<line class="st0" x1="19.6" y1="311.5" x2="19.6" y2="336.2"/>
		<line class="st0" x1="28.6" y1="336.2" x2="19.6" y2="336.2"/>
		<line class="st0" x1="28.6" y1="336.2" x2="28.6" y2="359.6"/>
		<line class="st0" x1="28.6" y1="359.6" x2="19.6" y2="359.6"/>
		<line class="st0" x1="19.6" y1="359.6" x2="19.6" y2="384.3"/>
		<line class="st0" x1="28.6" y1="384.3" x2="19.6" y2="384.3"/>
		<line class="st0" x1="28.6" y1="384.3" x2="28.6" y2="407.7"/>
		<line class="st0" x1="28.6" y1="407.7" x2="19.6" y2="407.7"/>
		<line class="st0" x1="19.6" y1="407.7" x2="19.6" y2="432.4"/>
		<line class="st0" x1="28.6" y1="432.4" x2="19.6" y2="432.4"/>
		<line class="st0" x1="28.6" y1="432.4" x2="28.6" y2="455.8"/>
		<line class="st0" x1="28.6" y1="455.8" x2="19.6" y2="455.8"/>
		<line class="st0" x1="19.6" y1="455.8" x2="19.6" y2="480.5"/>
		<line class="st0" x1="28.6" y1="480.5" x2="19.6" y2="480.5"/>
		<line class="st0" x1="28.6" y1="480.5" x2="28.6" y2="503.9"/>
		<line class="st0" x1="28.6" y1="503.9" x2="19.6" y2="503.9"/>
		<line class="st0" x1="19.6" y1="503.9" x2="19.6" y2="528.6"/>
		<line class="st0" x1="28.6" y1="528.6" x2="19.6" y2="528.6"/>
		<line class="st0" x1="28.6" y1="528.6" x2="28.6" y2="552"/>
		<line class="st0" x1="28.6" y1="552" x2="19.6" y2="552"/>
		<line class="st0" x1="19.6" y1="552" x2="19.6" y2="567.3"/>
		<line class="st0" x1="128.3" y1="215.7" x2="128.3" y2="240"/>
		<line class="st0" x1="128.3" y1="240" x2="119.3" y2="240"/>
		<line class="st0" x1="119.3" y1="240" x2="119.3" y2="263.4"/>
		<line class="st0" x1="128.3" y1="263.4" x2="119.3" y2="263.4"/>
		<line class="st0" x1="128.3" y1="263.4" x2="128.3" y2="288.1"/>
		<line class="st0" x1="128.3" y1="288.1" x2="119.3" y2="288.1"/>
		<line class="st0" x1="119.3" y1="288.1" x2="119.3" y2="311.5"/>
		<line class="st0" x1="128.3" y1="311.5" x2="119.3" y2="311.5"/>
		<line class="st0" x1="128.3" y1="311.5" x2="128.3" y2="336.2"/>
		<line class="st0" x1="128.3" y1="336.2" x2="119.3" y2="336.2"/>
		<line class="st0" x1="119.3" y1="336.2" x2="119.3" y2="359.6"/>
		<line class="st0" x1="128.3" y1="359.6" x2="119.3" y2="359.6"/>
		<line class="st0" x1="128.3" y1="359.6" x2="128.3" y2="384.3"/>
		<line class="st0" x1="128.3" y1="384.3" x2="119.3" y2="384.3"/>
		<line class="st0" x1="119.3" y1="384.3" x2="119.3" y2="407.7"/>
		<line class="st0" x1="128.3" y1="407.7" x2="119.3" y2="407.7"/>
		<line class="st0" x1="128.3" y1="407.7" x2="128.3" y2="432.4"/>
		<line class="st0" x1="128.3" y1="432.4" x2="119.3" y2="432.4"/>
		<line class="st0" x1="119.3" y1="432.4" x2="119.3" y2="455.8"/>
		<line class="st0" x1="128.3" y1="455.8" x2="119.3" y2="455.8"/>
		<line class="st0" x1="128.3" y1="455.8" x2="128.3" y2="480.5"/>
		<line class="st0" x1="128.3" y1="480.5" x2="119.3" y2="480.5"/>
		<line class="st0" x1="119.3" y1="480.5" x2="119.3" y2="503.9"/>
		<line class="st0" x1="128.3" y1="503.9" x2="119.3" y2="503.9"/>
		<line class="st0" x1="128.3" y1="503.9" x2="128.3" y2="528.6"/>
		<line class="st0" x1="128.3" y1="528.6" x2="119.3" y2="528.6"/>
		<line class="st0" x1="119.3" y1="528.6" x2="119.3" y2="552"/>
		<line class="st0" x1="128.3" y1="552" x2="119.3" y2="552"/>
		<line class="st0" x1="128.3" y1="552" x2="128.3" y2="567.3"/>
		<line class="st0" x1="19.6" y1="215.7" x2="41.7" y2="215.7"/>
		<line class="st0" x1="41.7" y1="224.7" x2="41.7" y2="215.7"/>
		<line class="st0" x1="41.7" y1="224.7" x2="62.8" y2="224.7"/>
		<line class="st0" x1="62.8" y1="224.7" x2="62.8" y2="215.7"/>
		<line class="st0" x1="62.8" y1="215.7" x2="85.2" y2="215.7"/>
		<line class="st0" x1="85.2" y1="224.7" x2="85.2" y2="215.7"/>
		<line class="st0" x1="85.2" y1="224.7" x2="106.2" y2="224.7"/>
		<line class="st0" x1="106.2" y1="224.7" x2="106.2" y2="215.7"/>
		<line class="st0" x1="106.2" y1="215.7" x2="128.3" y2="215.7"/>
		<line class="st0" x1="19.6" y1="567.3" x2="41.1" y2="567.3"/>
		<line class="st0" x1="41.1" y1="576.3" x2="41.1" y2="567.3"/>
		<line class="st0" x1="41.1" y1="576.3" x2="63.4" y2="576.3"/>
		<line class="st0" x1="63.4" y1="576.3" x2="63.4" y2="567.3"/>
		<line class="st0" x1="63.4" y1="567.3" x2="84.5" y2="567.3"/>
		<line class="st0" x1="84.5" y1="576.3" x2="84.5" y2="567.3"/>
		<line class="st0" x1="84.5" y1="576.3" x2="106.9" y2="576.3"/>
		<line class="st0" x1="106.9" y1="576.3" x2="106.9" y2="567.3"/>
		<line class="st0" x1="106.9" y1="567.3" x2="128.3" y2="567.3"/>
	</g>
	
		<rect x="79.8" y="298.4" transform="matrix(4.490878e-11 1 -1 4.490878e-11 402.0826 197.5719)" class="st0" width="45" height="2.8"/>
	
		<rect x="74" y="462.9" transform="matrix(4.491855e-11 1 -1 4.491855e-11 560.1176 376.1415)" class="st0" width="36" height="10.5"/>
</g>
<g>
	<g>
		<line class="st0" x1="148.3" y1="567.3" x2="167.9" y2="567.3"/>
		<line class="st0" x1="167.9" y1="567.3" x2="167.9" y2="576.3"/>
		<line class="st0" x1="167.9" y1="576.3" x2="197.5" y2="576.3"/>
		<line class="st0" x1="197.5" y1="567.3" x2="197.5" y2="576.3"/>
		<line class="st0" x1="197.5" y1="567.3" x2="225.8" y2="567.3"/>
		<line class="st0" x1="225.8" y1="567.3" x2="225.8" y2="576.3"/>
		<line class="st0" x1="225.8" y1="576.3" x2="255.3" y2="576.3"/>
		<line class="st0" x1="255.3" y1="567.3" x2="255.3" y2="576.3"/>
		<line class="st0" x1="255.3" y1="567.3" x2="274.9" y2="567.3"/>
		<line class="st0" x1="148.3" y1="224.7" x2="167.9" y2="224.7"/>
		<line class="st0" x1="167.9" y1="215.7" x2="167.9" y2="224.7"/>
		<line class="st0" x1="167.9" y1="215.7" x2="197.5" y2="215.7"/>
		<line class="st0" x1="197.5" y1="215.7" x2="197.5" y2="224.7"/>
		<line class="st0" x1="197.5" y1="224.7" x2="225.8" y2="224.7"/>
		<line class="st0" x1="225.8" y1="215.7" x2="225.8" y2="224.7"/>
		<line class="st0" x1="225.8" y1="215.7" x2="255.3" y2="215.7"/>
		<line class="st0" x1="255.3" y1="215.7" x2="255.3" y2="224.7"/>
		<line class="st0" x1="255.3" y1="224.7" x2="274.9" y2="224.7"/>
		<line class="st0" x1="148.3" y1="567.3" x2="148.3" y2="552.6"/>
		<line class="st0" x1="148.3" y1="552.6" x2="139.3" y2="552.6"/>
		<line class="st0" x1="139.3" y1="552.6" x2="139.3" y2="527.9"/>
		<line class="st0" x1="148.3" y1="527.9" x2="139.3" y2="527.9"/>
		<line class="st0" x1="148.3" y1="527.9" x2="148.3" y2="504.5"/>
		<line class="st0" x1="148.3" y1="504.5" x2="139.3" y2="504.5"/>
		<line class="st0" x1="139.3" y1="504.5" x2="139.3" y2="479.8"/>
		<line class="st0" x1="148.3" y1="479.8" x2="139.3" y2="479.8"/>
		<line class="st0" x1="148.3" y1="479.8" x2="148.3" y2="456.4"/>
		<line class="st0" x1="148.3" y1="456.4" x2="139.3" y2="456.4"/>
		<line class="st0" x1="139.3" y1="456.4" x2="139.3" y2="431.7"/>
		<line class="st0" x1="148.3" y1="431.7" x2="139.3" y2="431.7"/>
		<line class="st0" x1="148.3" y1="431.7" x2="148.3" y2="408.3"/>
		<line class="st0" x1="148.3" y1="408.3" x2="139.3" y2="408.3"/>
		<line class="st0" x1="139.3" y1="408.3" x2="139.3" y2="383.7"/>
		<line class="st0" x1="148.3" y1="383.7" x2="139.3" y2="383.7"/>
		<line class="st0" x1="148.3" y1="383.7" x2="148.3" y2="360.3"/>
		<line class="st0" x1="148.3" y1="360.3" x2="139.3" y2="360.3"/>
		<line class="st0" x1="139.3" y1="360.3" x2="139.3" y2="335.6"/>
		<line class="st0" x1="148.3" y1="335.6" x2="139.3" y2="335.6"/>
		<line class="st0" x1="148.3" y1="335.6" x2="148.3" y2="312.2"/>
		<line class="st0" x1="148.3" y1="312.2" x2="139.3" y2="312.2"/>
		<line class="st0" x1="139.3" y1="312.2" x2="139.3" y2="287.5"/>
		<line class="st0" x1="148.3" y1="287.5" x2="139.3" y2="287.5"/>
		<line class="st0" x1="148.3" y1="287.5" x2="148.3" y2="264.1"/>
		<line class="st0" x1="148.3" y1="264.1" x2="139.3" y2="264.1"/>
		<line class="st0" x1="139.3" y1="264.1" x2="139.3" y2="239.4"/>
		<line class="st0" x1="148.3" y1="239.4" x2="139.3" y2="239.4"/>
		<line class="st0" x1="148.3" y1="239.4" x2="148.3" y2="224.7"/>
		<line class="st0" x1="274.9" y1="567.3" x2="274.9" y2="552.6"/>
		<line class="st0" x1="283.9" y1="552.6" x2="274.9" y2="552.6"/>
		<line class="st0" x1="283.9" y1="552.6" x2="283.9" y2="527.9"/>
		<line class="st0" x1="283.9" y1="527.9" x2="274.9" y2="527.9"/>
		<line class="st0" x1="274.9" y1="527.9" x2="274.9" y2="504.5"/>
		<line class="st0" x1="283.9" y1="504.5" x2="274.9" y2="504.5"/>
		<line class="st0" x1="283.9" y1="504.5" x2="283.9" y2="479.8"/>
		<line class="st0" x1="283.9" y1="479.8" x2="274.9" y2="479.8"/>
		<line class="st0" x1="274.9" y1="479.8" x2="274.9" y2="456.4"/>
		<line class="st0" x1="283.9" y1="456.4" x2="274.9" y2="456.4"/>
		<line class="st0" x1="283.9" y1="456.4" x2="283.9" y2="431.7"/>
		<line class="st0" x1="283.9" y1="431.7" x2="274.9" y2="431.7"/>
		<line class="st0" x1="274.9" y1="431.7" x2="274.9" y2="408.3"/>
		<line class="st0" x1="283.9" y1="408.3" x2="274.9" y2="408.3"/>
		<line class="st0" x1="283.9" y1="408.3" x2="283.9" y2="383.7"/>
		<line class="st0" x1="283.9" y1="383.7" x2="274.9" y2="383.7"/>
		<line class="st0" x1="274.9" y1="383.7" x2="274.9" y2="360.3"/>
		<line class="st0" x1="283.9" y1="360.3" x2="274.9" y2="360.3"/>
		<line class="st0" x1="283.9" y1="360.3" x2="283.9" y2="335.6"/>
		<line class="st0" x1="283.9" y1="335.6" x2="274.9" y2="335.6"/>
		<line class="st0" x1="274.9" y1="335.6" x2="274.9" y2="312.2"/>
		<line class="st0" x1="283.9" y1="312.2" x2="274.9" y2="312.2"/>
		<line class="st0" x1="283.9" y1="312.2" x2="283.9" y2="287.5"/>
		<line class="st0" x1="283.9" y1="287.5" x2="274.9" y2="287.5"/>
		<line class="st0" x1="274.9" y1="287.5" x2="274.9" y2="264.1"/>
		<line class="st0" x1="283.9" y1="264.1" x2="274.9" y2="264.1"/>
		<line class="st0" x1="283.9" y1="264.1" x2="283.9" y2="239.4"/>
		<line class="st0" x1="283.9" y1="239.4" x2="274.9" y2="239.4"/>
		<line class="st0" x1="274.9" y1="239.4" x2="274.9" y2="224.7"/>
	</g>
	<g>
		<g>
			<circle class="st0" cx="205.3" cy="270.1" r="2.8"/>
			<circle class="st0" cx="205.3" cy="329.6" r="2.8"/>
		</g>
		
			<rect x="193.3" y="287.8" transform="matrix(4.491855e-11 1 -1 4.491855e-11 505.1713 94.4832)" class="st0" width="24.1" height="24.1"/>
	</g>
	<g>
		<circle class="st0" cx="211" cy="430.9" r="24.8"/>
		<circle class="st0" cx="211" cy="505.4" r="24.8"/>
	</g>
</g>
<g>
	<line class="st0" x1="139.3" y1="696" x2="168.6" y2="696"/>
	<line class="st0" x1="168.6" y1="687" x2="168.6" y2="696"/>
	<line class="st0" x1="168.6" y1="687" x2="196.8" y2="687"/>
	<line class="st0" x1="196.8" y1="687" x2="196.8" y2="696"/>
	<line class="st0" x1="196.8" y1="696" x2="226.4" y2="696"/>
	<line class="st0" x1="226.4" y1="687" x2="226.4" y2="696"/>
	<line class="st0" x1="226.4" y1="687" x2="254.7" y2="687"/>
	<line class="st0" x1="254.7" y1="687" x2="254.7" y2="696"/>
	<line class="st0" x1="254.7" y1="696" x2="274.9" y2="696"/>
	<line class="st0" x1="139.3" y1="587.3" x2="168.6" y2="587.3"/>
	<line class="st0" x1="168.6" y1="587.3" x2="168.6" y2="596.3"/>
	<line class="st0" x1="168.6" y1="596.3" x2="196.8" y2="596.3"/>
	<line class="st0" x1="196.8" y1="587.3" x2="196.8" y2="596.3"/>
	<line class="st0" x1="196.8" y1="587.3" x2="226.4" y2="587.3"/>
	<line class="st0" x1="226.4" y1="587.3" x2="226.4" y2="596.3"/>
	<line class="st0" x1="226.4" y1="596.3" x2="254.7" y2="596.3"/>
	<line class="st0" x1="254.7" y1="587.3" x2="254.7" y2="596.3"/>
	<line class="st0" x1="254.7" y1="587.3" x2="274.9" y2="587.3"/>
	<line class="st0" x1="139.3" y1="696" x2="139.3" y2="674.6"/>
	<line class="st0" x1="148.3" y1="674.6" x2="139.3" y2="674.6"/>
	<line class="st0" x1="148.3" y1="674.6" x2="148.3" y2="652.2"/>
	<line class="st0" x1="148.3" y1="652.2" x2="139.3" y2="652.2"/>
	<line class="st0" x1="139.3" y1="652.2" x2="139.3" y2="631.1"/>
	<line class="st0" x1="148.3" y1="631.1" x2="139.3" y2="631.1"/>
	<line class="st0" x1="148.3" y1="631.1" x2="148.3" y2="608.7"/>
	<line class="st0" x1="148.3" y1="608.7" x2="139.3" y2="608.7"/>
	<line class="st0" x1="139.3" y1="608.7" x2="139.3" y2="587.3"/>
	<line class="st0" x1="274.9" y1="696" x2="274.9" y2="674.6"/>
	<line class="st0" x1="283.9" y1="674.6" x2="274.9" y2="674.6"/>
	<line class="st0" x1="283.9" y1="674.6" x2="283.9" y2="652.2"/>
	<line class="st0" x1="283.9" y1="652.2" x2="274.9" y2="652.2"/>
	<line class="st0" x1="274.9" y1="652.2" x2="274.9" y2="631.1"/>
	<line class="st0" x1="283.9" y1="631.1" x2="274.9" y2="631.1"/>
	<line class="st0" x1="283.9" y1="631.1" x2="283.9" y2="608.7"/>
	<line class="st0" x1="283.9" y1="608.7" x2="274.9" y2="608.7"/>
	<line class="st0" x1="274.9" y1="608.7" x2="274.9" y2="587.3"/>
</g>
<g>
	<line class="st0" x1="283.9" y1="96" x2="254.7" y2="96"/>
	<line class="st0" x1="254.7" y1="105" x2="254.7" y2="96"/>
	<line class="st0" x1="254.7" y1="105" x2="226.4" y2="105"/>
	<line class="st0" x1="226.4" y1="105" x2="226.4" y2="96"/>
	<line class="st0" x1="226.4" y1="96" x2="196.8" y2="96"/>
	<line class="st0" x1="196.8" y1="105" x2="196.8" y2="96"/>
	<line class="st0" x1="196.8" y1="105" x2="168.6" y2="105"/>
	<line class="st0" x1="168.6" y1="105" x2="168.6" y2="96"/>
	<line class="st0" x1="168.6" y1="96" x2="148.3" y2="96"/>
	<line class="st0" x1="283.9" y1="204.7" x2="254.7" y2="204.7"/>
	<line class="st0" x1="254.7" y1="204.7" x2="254.7" y2="195.7"/>
	<line class="st0" x1="254.7" y1="195.7" x2="226.4" y2="195.7"/>
	<line class="st0" x1="226.4" y1="204.7" x2="226.4" y2="195.7"/>
	<line class="st0" x1="226.4" y1="204.7" x2="196.8" y2="204.7"/>
	<line class="st0" x1="196.8" y1="204.7" x2="196.8" y2="195.7"/>
	<line class="st0" x1="196.8" y1="195.7" x2="168.6" y2="195.7"/>
	<line class="st0" x1="168.6" y1="204.7" x2="168.6" y2="195.7"/>
	<line class="st0" x1="168.6" y1="204.7" x2="148.3" y2="204.7"/>
	<line class="st0" x1="283.9" y1="96" x2="283.9" y2="117.4"/>
	<line class="st0" x1="274.9" y1="117.4" x2="283.9" y2="117.4"/>
	<line class="st0" x1="274.9" y1="117.4" x2="274.9" y2="139.8"/>
	<line class="st0" x1="274.9" y1="139.8" x2="283.9" y2="139.8"/>
	<line class="st0" x1="283.9" y1="139.8" x2="283.9" y2="160.9"/>
	<line class="st0" x1="274.9" y1="160.9" x2="283.9" y2="160.9"/>
	<line class="st0" x1="274.9" y1="160.9" x2="274.9" y2="183.3"/>
	<line class="st0" x1="274.9" y1="183.3" x2="283.9" y2="183.3"/>
	<line class="st0" x1="283.9" y1="183.3" x2="283.9" y2="204.7"/>
	<line class="st0" x1="148.3" y1="96" x2="148.3" y2="117.4"/>
	<line class="st0" x1="139.3" y1="117.4" x2="148.3" y2="117.4"/>
	<line class="st0" x1="139.3" y1="117.4" x2="139.3" y2="139.8"/>
	<line class="st0" x1="139.3" y1="139.8" x2="148.3" y2="139.8"/>
	<line class="st0" x1="148.3" y1="139.8" x2="148.3" y2="160.9"/>
	<line class="st0" x1="139.3" y1="160.9" x2="148.3" y2="160.9"/>
	<line class="st0" x1="139.3" y1="160.9" x2="139.3" y2="183.3"/>
	<line class="st0" x1="139.3" y1="183.3" x2="148.3" y2="183.3"/>
	<line class="st0" x1="148.3" y1="183.3" x2="148.3" y2="204.7"/>
</g>
</svg>
